<svg width="70" height="37" viewBox="0 0 70 37" fill="none" xmlns="http://www.w3.org/2000/svg">
<path d="M13.15 36.7C6.5 36.7 3.95 32.5 3.95 26.25V13.8H0.0500001V8.35L4.4 8.05L5.2 0.449999H11.3V8.05H18.25V13.8H11.3V26.25C11.3 29.45 12.65 30.95 15.1 30.95C16.05 30.95 17.1 30.6 17.9 30.3L19.1 35.65C17.6 36.15 15.65 36.7 13.15 36.7ZM31.9949 30.55V19.9H21.9449V14.7H31.9949V4.05H37.4949V14.7H47.5949V19.9H37.4949V30.55H31.9949ZM63.6871 36.7C57.0371 36.7 54.4871 32.5 54.4871 26.25V13.8H50.5871V8.35L54.9371 8.05L55.7371 0.449999H61.8371V8.05H68.7871V13.8H61.8371V26.25C61.8371 29.45 63.1871 30.95 65.6371 30.95C66.5871 30.95 67.6371 30.6 68.4371 30.3L69.6371 35.65C68.1371 36.15 66.1871 36.7 63.6871 36.7Z" fill="#0994BC"/>
</svg>
